<svg xmlns="http://www.w3.org/2000/svg" width="256.49" height="256.53" viewBox="0 0 256.49 256.53"><defs><style>.cls-1{fill:#ef3b24;}</style></defs><title>Asset 1</title><g id="Layer_2" data-name="Layer 2"><g id="Layer_1-2" data-name="Layer 1"><path class="cls-1" d="M179,170a3.28,3.28,0,0,0-3.18,2.25q-1,2.24-1,9.2,0,6.44.83,8.94a3.41,3.41,0,0,0,6.57,0q.86-2.49.87-9,0-6.71-.91-9.08A3.25,3.25,0,0,0,179,170Z"/><path class="cls-1" d="M128.82,148a3.73,3.73,0,0,0,3.56-2.37q1.13-2.37,1.13-9.61t-1.12-9.57a3.84,3.84,0,0,0-7.11,0q-1.12,2.4-1.12,9.56t1.11,9.5A3.7,3.7,0,0,0,128.82,148Z"/><path class="cls-1" d="M88.29,176.41q0-6.77-4.57-6.77t-4.53,7.74h9.06C88.28,177,88.29,176.64,88.29,176.41Z"/><path class="cls-1" d="M217.71,123.36a2.9,2.9,0,0,0-2.81,1.93Q214,127.22,214,136t.82,10.66a3,3,0,0,0,5.62.12q.85-1.86.85-10.78,0-8.08-.73-10.36A2.87,2.87,0,0,0,217.71,123.36Z"/><path class="cls-1" d="M234.51,182.69l-3.57,4.9v11.35h-9.79V163.88h9.79V177.4l9.85-13.53h8.9l-8.86,11.77,3.25,7.79a127.34,127.34,0,0,0,10.49-32.78q-2.82,3.66-8.48,3.67-6.54,0-9.21-4.73t-2.67-13.14q0-9.69,2.77-14.23t9.1-4.54q6.54,0,9.21,4.73a16.45,16.45,0,0,1,1.18,2.65,128.84,128.84,0,0,0-2.28-21.15H243v1.23q0,3,.81,4a2.61,2.61,0,0,0,2.14,1q2.83,0,3.19-3.8l5.54.35q-1.48,7.78-8.84,7.77a8.17,8.17,0,0,1-6.9-3.07,13.12,13.12,0,0,1-2.36-8.21q0-5.8,2.5-8.86a8.24,8.24,0,0,1,6.71-3.06,8.32,8.32,0,0,1,6.06,2.44A128.28,128.28,0,1,0,238.35,194.1ZM215.93,83.89h6.22v10.2a5.88,5.88,0,0,1,5.47-2.83,5.52,5.52,0,0,1,3.58,1.06A4.58,4.58,0,0,1,232.88,95a23.52,23.52,0,0,1,.36,4.71V114H227V99.7a6.78,6.78,0,0,0-.41-2.91,1.78,1.78,0,0,0-1.69-.72,2.87,2.87,0,0,0-2,.69q-.75.69-.75,3.12V114h-6.22Zm-15.41,7.83H203V84.88l6-.19v7h4.1v4.9H209v8.19a26.64,26.64,0,0,0,.1,2.95,1.75,1.75,0,0,0,.66,1.13,3,3,0,0,0,1.89.45c.47,0,1.06,0,1.77,0V114a17.48,17.48,0,0,1-3.8.46,7.34,7.34,0,0,1-4.33-1.08,4.76,4.76,0,0,1-1.92-2.71,23,23,0,0,1-.42-5.19V96.62h-2.47ZM182.92,148h6V127a22.23,22.23,0,0,1-6,4.45v-7a23.18,23.18,0,0,0,7.84-6.56h6V148h5.89v5.81H182.92Zm-36-29.74h8.67l9.14,22.09V118.23h6v35.55h-7l-10.83-25.73v25.73h-6Zm-18.07-.55q6.3,0,9.61,4.58T141.73,136q0,18.33-12.89,18.33-6.41,0-9.66-4.67T115.92,136Q115.92,117.68,128.82,117.69Zm-26.15.55h7.81v35.55h-7.81Zm-41.17,0h7.81v35.55H61.5Zm-21.05,0,5.46,27.1,5.65-27.1h6.7L49.54,154l-8.75-.18-8.54-35.55Zm23.37,80.71H54V176q0-3.54-.91-4.37a3.44,3.44,0,0,0-2.43-.83q-2.64,0-3.47,1.62t-.83,6v20.56H36.59V163.88h9.27v4.79q2.43-5.49,8.79-5.49a9.77,9.77,0,0,1,5.68,1.54,6.79,6.79,0,0,1,2.86,3.94,31.16,31.16,0,0,1,.63,7.29Zm16.59-7.67a4.09,4.09,0,0,0,3.35,1.59q4.47,0,5-6l8.72.55q-2.32,12.22-13.91,12.22-7.15,0-10.86-4.83T69,181.93Q69,172.8,73,168a12.94,12.94,0,0,1,10.56-4.81,13.13,13.13,0,0,1,10,4.25q4,4.26,4,15.61H79.13V185Q79.13,189.69,80.41,191.28Zm14-40.14q-3.42,3.19-9.18,3.19-9.66,0-12.34-9.77l6.82-2Q81,148,85.43,148a5,5,0,0,0,3.29-1.05A3.44,3.44,0,0,0,90,144.15a3.49,3.49,0,0,0-.88-2.33A10.49,10.49,0,0,0,85,139.64,37.19,37.19,0,0,1,78.94,137a9.4,9.4,0,0,1-3.31-3.38,9.66,9.66,0,0,1-1.3-5,10.59,10.59,0,0,1,3.08-7.85,11.08,11.08,0,0,1,8.16-3.06q9.27,0,11.57,8.28l-6.46,2.47q-1.38-4.4-5.05-4.4a3.74,3.74,0,0,0-2.72,1,3.08,3.08,0,0,0-1,2.28,2.86,2.86,0,0,0,1.19,2.41,23.54,23.54,0,0,0,5,2.36,29.35,29.35,0,0,1,5.4,2.53,9.43,9.43,0,0,1,3.18,3.4,10,10,0,0,1,1.21,5A10.66,10.66,0,0,1,94.43,151.14Zm25.67,47.81a27.58,27.58,0,0,1-6,.73q-4.44,0-6.8-1.7a7.45,7.45,0,0,1-3-4.27,36,36,0,0,1-.66-8.16v-14H99.75v-7.71h3.89V158.5h9.51v5.37h6.46v7.71h-6.46v12.88a41.25,41.25,0,0,0,.16,4.64,2.72,2.72,0,0,0,1,1.77,4.8,4.8,0,0,0,3,.71c.74,0,1.67,0,2.78-.07Zm35.47,0h-8.19l-4.51-23.86-4.41,23.86h-8l-8.82-35.07h9.52l4.12,21.35,3.93-21.35h9.51l3.19,21.33,4.73-21.33h7.66Zm23.42.73q-14.25,0-14.25-18.26T179,163.18q14.22,0,14.22,18.23T179,199.68Zm38.53-26.53a14,14,0,0,0-1.63-.14q-7.15,0-7.15,10.83v15.11h-9.79V163.88h8.61v8.47q2.33-8.92,8.3-8.92a9.33,9.33,0,0,1,1.67.17Zm.19-18.82q-6.54,0-9.21-4.73t-2.67-13.14q0-9.69,2.77-14.23t9.1-4.54q6.54,0,9.21,4.73t2.67,13.16q0,9.64-2.77,14.19T217.7,154.33Z"/><path class="cls-1" d="M243,100.31h5.76c0-.26,0-.47,0-.62q0-4.31-2.9-4.3T243,100.31Z"/><path class="cls-1" d="M246.11,123.36a2.9,2.9,0,0,0-2.81,1.93q-.85,1.93-.85,10.72t.82,10.66a3,3,0,0,0,5.62.12q.85-1.86.85-10.78,0-8.08-.73-10.36A2.87,2.87,0,0,0,246.11,123.36Z"/></g></g></svg>